<?xml version="1.0" encoding="UTF-8" standalone="no"?>
<!DOCTYPE svg PUBLIC "-//W3C//DTD SVG 1.1//EN"
 "http://www.w3.org/Graphics/SVG/1.1/DTD/svg11.dtd">
<!-- Generated by graphviz version 5.0.0 (20220707.1540)
 -->
<!-- Title: dependencies Pages: 1 -->
<svg width="284pt" height="247pt"
 viewBox="0.00 0.00 284.00 246.80" xmlns="http://www.w3.org/2000/svg" xmlns:xlink="http://www.w3.org/1999/xlink">
<g id="graph0" class="graph" transform="scale(1 1) rotate(0) translate(4 242.8)">
<title>dependencies</title>
<polygon fill="white" stroke="transparent" points="-4,4 -4,-242.8 280,-242.8 280,4 -4,4"/>
<text text-anchor="middle" x="138" y="-8.2" font-family="sans-serif" font-size="14.00">dependencies</text>
<g id="clust1" class="cluster">
<title>cluster_PipesModule</title>
<polygon fill="none" stroke="black" stroke-dasharray="1,5" points="8,-32.8 8,-230.8 268,-230.8 268,-32.8 8,-32.8"/>
</g>
<g id="clust6" class="cluster">
<title>cluster_PipesModule_exports</title>
<polygon fill="none" stroke="black" points="16,-170.8 16,-222.8 260,-222.8 260,-170.8 16,-170.8"/>
</g>
<g id="clust2" class="cluster">
<title>cluster_PipesModule_declarations</title>
<polygon fill="none" stroke="black" points="20,-40.8 20,-92.8 256,-92.8 256,-40.8 20,-40.8"/>
</g>
<!-- GenderPipe -->
<g id="node1" class="node">
<title>GenderPipe</title>
<polygon fill="#ffffb3" stroke="black" points="248.09,-84.8 165.91,-84.8 165.91,-48.8 248.09,-48.8 248.09,-84.8"/>
<text text-anchor="middle" x="207" y="-62.6" font-family="Times,serif" font-size="14.00">GenderPipe</text>
</g>
<!-- PipesModule -->
<g id="node3" class="node">
<title>PipesModule</title>
<polygon fill="#8dd3c7" stroke="black" points="133.89,-149.8 130.89,-153.8 109.89,-153.8 106.89,-149.8 44.11,-149.8 44.11,-113.8 133.89,-113.8 133.89,-149.8"/>
<text text-anchor="middle" x="89" y="-127.6" font-family="Times,serif" font-size="14.00">PipesModule</text>
</g>
<!-- GenderPipe&#45;&gt;PipesModule -->
<g id="edge1" class="edge">
<title>GenderPipe&#45;&gt;PipesModule</title>
<path fill="none" stroke="black" d="M220.76,-84.82C220.76,-102.17 220.76,-125.8 220.76,-125.8 220.76,-125.8 143.98,-125.8 143.98,-125.8"/>
<polygon fill="black" stroke="black" points="143.98,-122.3 133.98,-125.8 143.98,-129.3 143.98,-122.3"/>
</g>
<!-- ImgNotFoundPipe -->
<g id="node2" class="node">
<title>ImgNotFoundPipe</title>
<polygon fill="#ffffb3" stroke="black" points="148.23,-84.8 27.77,-84.8 27.77,-48.8 148.23,-48.8 148.23,-84.8"/>
<text text-anchor="middle" x="88" y="-62.6" font-family="Times,serif" font-size="14.00">ImgNotFoundPipe</text>
</g>
<!-- ImgNotFoundPipe&#45;&gt;PipesModule -->
<g id="edge2" class="edge">
<title>ImgNotFoundPipe&#45;&gt;PipesModule</title>
<path fill="none" stroke="black" d="M89,-84.91C89,-84.91 89,-103.79 89,-103.79"/>
<polygon fill="black" stroke="black" points="85.5,-103.79 89,-113.79 92.5,-103.79 85.5,-103.79"/>
</g>
<!-- GenderPipe  -->
<g id="node4" class="node">
<title>GenderPipe </title>
<polygon fill="#fb8072" stroke="black" points="251.59,-214.8 166.41,-214.8 166.41,-178.8 251.59,-178.8 251.59,-214.8"/>
<text text-anchor="middle" x="209" y="-192.6" font-family="Times,serif" font-size="14.00">GenderPipe </text>
</g>
<!-- PipesModule&#45;&gt;GenderPipe  -->
<g id="edge3" class="edge">
<title>PipesModule&#45;&gt;GenderPipe </title>
<path fill="none" stroke="black" stroke-dasharray="5,2" d="M133.92,-137.8C162.24,-137.8 193.49,-137.8 193.49,-137.8 193.49,-137.8 193.49,-168.78 193.49,-168.78"/>
<polygon fill="black" stroke="black" points="189.99,-168.78 193.49,-178.78 196.99,-168.78 189.99,-168.78"/>
</g>
<!-- ImgNotFoundPipe  -->
<g id="node5" class="node">
<title>ImgNotFoundPipe </title>
<polygon fill="#fb8072" stroke="black" points="147.73,-214.8 24.27,-214.8 24.27,-178.8 147.73,-178.8 147.73,-214.8"/>
<text text-anchor="middle" x="86" y="-192.6" font-family="Times,serif" font-size="14.00">ImgNotFoundPipe </text>
</g>
<!-- PipesModule&#45;&gt;ImgNotFoundPipe  -->
<g id="edge4" class="edge">
<title>PipesModule&#45;&gt;ImgNotFoundPipe </title>
<path fill="none" stroke="black" stroke-dasharray="5,2" d="M89,-149.91C89,-149.91 89,-168.79 89,-168.79"/>
<polygon fill="black" stroke="black" points="85.5,-168.79 89,-178.79 92.5,-168.79 85.5,-168.79"/>
</g>
</g>
</svg>
