<?xml version="1.0" encoding="UTF-8" standalone="no"?>
<!DOCTYPE svg PUBLIC "-//W3C//DTD SVG 1.1//EN"
 "http://www.w3.org/Graphics/SVG/1.1/DTD/svg11.dtd">
<!-- Generated by graphviz version 5.0.0 (20220707.1540)
 -->
<!-- Title: dependencies Pages: 1 -->
<svg width="1170pt" height="174pt"
 viewBox="0.00 0.00 1170.00 173.80" xmlns="http://www.w3.org/2000/svg" xmlns:xlink="http://www.w3.org/1999/xlink">
<g id="graph0" class="graph" transform="scale(1 1) rotate(0) translate(4 169.8)">
<title>dependencies</title>
<polygon fill="white" stroke="transparent" points="-4,4 -4,-169.8 1166,-169.8 1166,4 -4,4"/>
<text text-anchor="middle" x="581" y="-8.2" font-family="sans-serif" font-size="14.00">dependencies</text>
<g id="clust1" class="cluster">
<title>cluster_HerosModule</title>
<polygon fill="none" stroke="black" stroke-dasharray="1,5" points="8,-32.8 8,-157.8 1154,-157.8 1154,-32.8 8,-32.8"/>
</g>
<g id="clust2" class="cluster">
<title>cluster_HerosModule_declarations</title>
<polygon fill="none" stroke="black" points="740,-40.8 740,-92.8 1146,-92.8 1146,-40.8 740,-40.8"/>
</g>
<g id="clust6" class="cluster">
<title>cluster_HerosModule_imports</title>
<polygon fill="none" stroke="black" points="16,-40.8 16,-92.8 732,-92.8 732,-40.8 16,-40.8"/>
</g>
<!-- AddComponent -->
<g id="node1" class="node">
<title>AddComponent</title>
<polygon fill="#ffffb3" stroke="black" points="1137.94,-84.8 1032.06,-84.8 1032.06,-48.8 1137.94,-48.8 1137.94,-84.8"/>
<text text-anchor="middle" x="1085" y="-62.6" font-family="Times,serif" font-size="14.00">AddComponent</text>
</g>
<!-- HerosModule -->
<g id="node4" class="node">
<title>HerosModule</title>
<polygon fill="#8dd3c7" stroke="black" points="640.49,-149.8 637.49,-153.8 616.49,-153.8 613.49,-149.8 547.51,-149.8 547.51,-113.8 640.49,-113.8 640.49,-149.8"/>
<text text-anchor="middle" x="594" y="-127.6" font-family="Times,serif" font-size="14.00">HerosModule</text>
</g>
<!-- AddComponent&#45;&gt;HerosModule -->
<g id="edge1" class="edge">
<title>AddComponent&#45;&gt;HerosModule</title>
<path fill="none" stroke="black" d="M1085,-85.09C1085,-107.01 1085,-140.8 1085,-140.8 1085,-140.8 650.63,-140.8 650.63,-140.8"/>
<polygon fill="black" stroke="black" points="650.63,-137.3 640.63,-140.8 650.63,-144.3 650.63,-137.3"/>
</g>
<!-- ListComponent -->
<g id="node2" class="node">
<title>ListComponent</title>
<polygon fill="#ffffb3" stroke="black" points="1014.61,-84.8 911.39,-84.8 911.39,-48.8 1014.61,-48.8 1014.61,-84.8"/>
<text text-anchor="middle" x="963" y="-62.6" font-family="Times,serif" font-size="14.00">ListComponent</text>
</g>
<!-- ListComponent&#45;&gt;HerosModule -->
<g id="edge2" class="edge">
<title>ListComponent&#45;&gt;HerosModule</title>
<path fill="none" stroke="black" d="M963,-84.91C963,-104.14 963,-131.8 963,-131.8 963,-131.8 650.73,-131.8 650.73,-131.8"/>
<polygon fill="black" stroke="black" points="650.73,-128.3 640.73,-131.8 650.73,-135.3 650.73,-128.3"/>
</g>
<!-- ToUpperCaseDirective -->
<g id="node3" class="node">
<title>ToUpperCaseDirective</title>
<polygon fill="#ffffb3" stroke="black" points="893.84,-84.8 748.16,-84.8 748.16,-48.8 893.84,-48.8 893.84,-84.8"/>
<text text-anchor="middle" x="821" y="-62.6" font-family="Times,serif" font-size="14.00">ToUpperCaseDirective</text>
</g>
<!-- ToUpperCaseDirective&#45;&gt;HerosModule -->
<g id="edge3" class="edge">
<title>ToUpperCaseDirective&#45;&gt;HerosModule</title>
<path fill="none" stroke="black" d="M821,-84.83C821,-101.2 821,-122.8 821,-122.8 821,-122.8 650.76,-122.8 650.76,-122.8"/>
<polygon fill="black" stroke="black" points="650.76,-119.3 640.76,-122.8 650.76,-126.3 650.76,-119.3"/>
</g>
<!-- ActionsComponent -->
<g id="node5" class="node">
<title>ActionsComponent</title>
<polygon fill="#8dd3c7" stroke="black" points="724.38,-84.8 721.38,-88.8 700.38,-88.8 697.38,-84.8 599.62,-84.8 599.62,-48.8 724.38,-48.8 724.38,-84.8"/>
<text text-anchor="middle" x="662" y="-62.6" font-family="Times,serif" font-size="14.00">ActionsComponent</text>
</g>
<!-- ActionsComponent&#45;&gt;HerosModule -->
<g id="edge4" class="edge">
<title>ActionsComponent&#45;&gt;HerosModule</title>
<path fill="none" stroke="black" d="M620.03,-84.91C620.03,-84.91 620.03,-103.79 620.03,-103.79"/>
<polygon fill="black" stroke="black" points="616.53,-103.79 620.03,-113.79 623.53,-103.79 616.53,-103.79"/>
</g>
<!-- AlertComponent -->
<g id="node6" class="node">
<title>AlertComponent</title>
<polygon fill="#8dd3c7" stroke="black" points="582.1,-84.8 579.1,-88.8 558.1,-88.8 555.1,-84.8 471.9,-84.8 471.9,-48.8 582.1,-48.8 582.1,-84.8"/>
<text text-anchor="middle" x="527" y="-62.6" font-family="Times,serif" font-size="14.00">AlertComponent</text>
</g>
<!-- AlertComponent&#45;&gt;HerosModule -->
<g id="edge5" class="edge">
<title>AlertComponent&#45;&gt;HerosModule</title>
<path fill="none" stroke="black" d="M564.78,-84.91C564.78,-84.91 564.78,-103.79 564.78,-103.79"/>
<polygon fill="black" stroke="black" points="561.28,-103.79 564.78,-113.79 568.28,-103.79 561.28,-103.79"/>
</g>
<!-- HeroFilterComponent -->
<g id="node7" class="node">
<title>HeroFilterComponent</title>
<polygon fill="#8dd3c7" stroke="black" points="453.65,-84.8 450.65,-88.8 429.65,-88.8 426.65,-84.8 314.35,-84.8 314.35,-48.8 453.65,-48.8 453.65,-84.8"/>
<text text-anchor="middle" x="384" y="-62.6" font-family="Times,serif" font-size="14.00">HeroFilterComponent</text>
</g>
<!-- HeroFilterComponent&#45;&gt;HerosModule -->
<g id="edge6" class="edge">
<title>HeroFilterComponent&#45;&gt;HerosModule</title>
<path fill="none" stroke="black" d="M384,-84.83C384,-101.2 384,-122.8 384,-122.8 384,-122.8 537.39,-122.8 537.39,-122.8"/>
<polygon fill="black" stroke="black" points="537.39,-126.3 547.39,-122.8 537.39,-119.3 537.39,-126.3"/>
</g>
<!-- HerosRoutingModule -->
<g id="node8" class="node">
<title>HerosRoutingModule</title>
<polygon fill="#8dd3c7" stroke="black" points="296.1,-84.8 293.1,-88.8 272.1,-88.8 269.1,-84.8 157.9,-84.8 157.9,-48.8 296.1,-48.8 296.1,-84.8"/>
<text text-anchor="middle" x="227" y="-62.6" font-family="Times,serif" font-size="14.00">HerosRoutingModule</text>
</g>
<!-- HerosRoutingModule&#45;&gt;HerosModule -->
<g id="edge7" class="edge">
<title>HerosRoutingModule&#45;&gt;HerosModule</title>
<path fill="none" stroke="black" d="M227,-84.91C227,-104.14 227,-131.8 227,-131.8 227,-131.8 537.15,-131.8 537.15,-131.8"/>
<polygon fill="black" stroke="black" points="537.15,-135.3 547.15,-131.8 537.15,-128.3 537.15,-135.3"/>
</g>
<!-- ImageComponent -->
<g id="node9" class="node">
<title>ImageComponent</title>
<polygon fill="#8dd3c7" stroke="black" points="140.31,-84.8 137.31,-88.8 116.31,-88.8 113.31,-84.8 23.69,-84.8 23.69,-48.8 140.31,-48.8 140.31,-84.8"/>
<text text-anchor="middle" x="82" y="-62.6" font-family="Times,serif" font-size="14.00">ImageComponent</text>
</g>
<!-- ImageComponent&#45;&gt;HerosModule -->
<g id="edge8" class="edge">
<title>ImageComponent&#45;&gt;HerosModule</title>
<path fill="none" stroke="black" d="M82,-85.09C82,-107.01 82,-140.8 82,-140.8 82,-140.8 537.21,-140.8 537.21,-140.8"/>
<polygon fill="black" stroke="black" points="537.21,-144.3 547.21,-140.8 537.21,-137.3 537.21,-144.3"/>
</g>
</g>
</svg>
