<?xml version="1.0" encoding="UTF-8" standalone="no"?>
<!DOCTYPE svg PUBLIC "-//W3C//DTD SVG 1.1//EN"
 "http://www.w3.org/Graphics/SVG/1.1/DTD/svg11.dtd">
<!-- Generated by graphviz version 5.0.0 (20220707.1540)
 -->
<!-- Title: dependencies Pages: 1 -->
<svg width="1922pt" height="247pt"
 viewBox="0.00 0.00 1922.00 246.80" xmlns="http://www.w3.org/2000/svg" xmlns:xlink="http://www.w3.org/1999/xlink">
<g id="graph0" class="graph" transform="scale(1 1) rotate(0) translate(4 242.8)">
<title>dependencies</title>
<polygon fill="white" stroke="transparent" points="-4,4 -4,-242.8 1918,-242.8 1918,4 -4,4"/>
<text text-anchor="middle" x="957" y="-8.2" font-family="sans-serif" font-size="14.00">dependencies</text>
<g id="clust1" class="cluster">
<title>cluster_AppModule</title>
<polygon fill="none" stroke="black" stroke-dasharray="1,5" points="8,-32.8 8,-230.8 484,-230.8 484,-32.8 8,-32.8"/>
</g>
<g id="clust2" class="cluster">
<title>cluster_AppModule_declarations</title>
<polygon fill="none" stroke="black" points="354,-40.8 354,-92.8 476,-92.8 476,-40.8 354,-40.8"/>
</g>
<g id="clust4" class="cluster">
<title>cluster_AppModule_imports</title>
<polygon fill="none" stroke="black" points="202,-40.8 202,-92.8 346,-92.8 346,-40.8 202,-40.8"/>
</g>
<g id="clust6" class="cluster">
<title>cluster_AppModule_bootstrap</title>
<polygon fill="none" stroke="black" points="212,-170.8 212,-222.8 336,-222.8 336,-170.8 212,-170.8"/>
</g>
<g id="clust7" class="cluster">
<title>cluster_AppModule_providers</title>
<polygon fill="none" stroke="black" points="16,-40.8 16,-92.8 194,-92.8 194,-40.8 16,-40.8"/>
</g>
<g id="clust14" class="cluster">
<title>cluster_HerosModule</title>
<polygon fill="none" stroke="black" stroke-dasharray="1,5" points="492,-32.8 492,-157.8 1638,-157.8 1638,-32.8 492,-32.8"/>
</g>
<g id="clust15" class="cluster">
<title>cluster_HerosModule_declarations</title>
<polygon fill="none" stroke="black" points="1224,-40.8 1224,-92.8 1630,-92.8 1630,-40.8 1224,-40.8"/>
</g>
<g id="clust19" class="cluster">
<title>cluster_HerosModule_imports</title>
<polygon fill="none" stroke="black" points="500,-40.8 500,-92.8 1216,-92.8 1216,-40.8 500,-40.8"/>
</g>
<g id="clust29" class="cluster">
<title>cluster_PipesModule</title>
<polygon fill="none" stroke="black" stroke-dasharray="1,5" points="1646,-32.8 1646,-230.8 1906,-230.8 1906,-32.8 1646,-32.8"/>
</g>
<g id="clust30" class="cluster">
<title>cluster_PipesModule_declarations</title>
<polygon fill="none" stroke="black" points="1658,-40.8 1658,-92.8 1894,-92.8 1894,-40.8 1658,-40.8"/>
</g>
<g id="clust34" class="cluster">
<title>cluster_PipesModule_exports</title>
<polygon fill="none" stroke="black" points="1654,-170.8 1654,-222.8 1898,-222.8 1898,-170.8 1654,-170.8"/>
</g>
<!-- AppComponent -->
<g id="node1" class="node">
<title>AppComponent</title>
<polygon fill="#ffffb3" stroke="black" points="467.94,-84.8 362.06,-84.8 362.06,-48.8 467.94,-48.8 467.94,-84.8"/>
<text text-anchor="middle" x="415" y="-62.6" font-family="Times,serif" font-size="14.00">AppComponent</text>
</g>
<!-- AppModule -->
<g id="node2" class="node">
<title>AppModule</title>
<polygon fill="#8dd3c7" stroke="black" points="315.66,-149.8 312.66,-153.8 291.66,-153.8 288.66,-149.8 232.34,-149.8 232.34,-113.8 315.66,-113.8 315.66,-149.8"/>
<text text-anchor="middle" x="274" y="-127.6" font-family="Times,serif" font-size="14.00">AppModule</text>
</g>
<!-- AppComponent&#45;&gt;AppModule -->
<g id="edge1" class="edge">
<title>AppComponent&#45;&gt;AppModule</title>
<path fill="none" stroke="black" d="M415,-84.81C415,-107.29 415,-142.8 415,-142.8 415,-142.8 325.92,-142.8 325.92,-142.8"/>
<polygon fill="black" stroke="black" points="325.92,-139.3 315.92,-142.8 325.92,-146.3 325.92,-139.3"/>
</g>
<!-- AppComponent  -->
<g id="node4" class="node">
<title>AppComponent </title>
<polygon fill="#80b1d3" stroke="black" points="328.44,-214.8 219.56,-214.8 219.56,-178.8 328.44,-178.8 328.44,-214.8"/>
<text text-anchor="middle" x="274" y="-192.6" font-family="Times,serif" font-size="14.00">AppComponent </text>
</g>
<!-- AppModule&#45;&gt;AppComponent  -->
<g id="edge3" class="edge">
<title>AppModule&#45;&gt;AppComponent </title>
<path fill="none" stroke="black" stroke-dasharray="1,5" d="M274,-149.91C274,-149.91 274,-168.79 274,-168.79"/>
<polygon fill="black" stroke="black" points="270.5,-168.79 274,-178.79 277.5,-168.79 270.5,-168.79"/>
</g>
<!-- AppRoutingModule -->
<g id="node3" class="node">
<title>AppRoutingModule</title>
<polygon fill="#8dd3c7" stroke="black" points="338.28,-84.8 335.28,-88.8 314.28,-88.8 311.28,-84.8 209.72,-84.8 209.72,-48.8 338.28,-48.8 338.28,-84.8"/>
<text text-anchor="middle" x="274" y="-62.6" font-family="Times,serif" font-size="14.00">AppRoutingModule</text>
</g>
<!-- AppRoutingModule&#45;&gt;AppModule -->
<g id="edge2" class="edge">
<title>AppRoutingModule&#45;&gt;AppModule</title>
<path fill="none" stroke="black" d="M274,-84.91C274,-84.91 274,-103.79 274,-103.79"/>
<polygon fill="black" stroke="black" points="270.5,-103.79 274,-113.79 277.5,-103.79 270.5,-103.79"/>
</g>
<!-- LoaderInterceptor -->
<g id="node5" class="node">
<title>LoaderInterceptor</title>
<ellipse fill="#fdb462" stroke="black" cx="105" cy="-66.8" rx="80.98" ry="18"/>
<text text-anchor="middle" x="105" y="-62.6" font-family="Times,serif" font-size="14.00">LoaderInterceptor</text>
</g>
<!-- LoaderInterceptor&#45;&gt;AppModule -->
<g id="edge4" class="edge">
<title>LoaderInterceptor&#45;&gt;AppModule</title>
<path fill="none" stroke="black" d="M105,-84.91C105,-104.14 105,-131.8 105,-131.8 105,-131.8 222.22,-131.8 222.22,-131.8"/>
<polygon fill="black" stroke="black" points="222.22,-135.3 232.22,-131.8 222.22,-128.3 222.22,-135.3"/>
</g>
<!-- AddComponent -->
<g id="node6" class="node">
<title>AddComponent</title>
<polygon fill="#ffffb3" stroke="black" points="1621.94,-84.8 1516.06,-84.8 1516.06,-48.8 1621.94,-48.8 1621.94,-84.8"/>
<text text-anchor="middle" x="1569" y="-62.6" font-family="Times,serif" font-size="14.00">AddComponent</text>
</g>
<!-- HerosModule -->
<g id="node9" class="node">
<title>HerosModule</title>
<polygon fill="#8dd3c7" stroke="black" points="1124.49,-149.8 1121.49,-153.8 1100.49,-153.8 1097.49,-149.8 1031.51,-149.8 1031.51,-113.8 1124.49,-113.8 1124.49,-149.8"/>
<text text-anchor="middle" x="1078" y="-127.6" font-family="Times,serif" font-size="14.00">HerosModule</text>
</g>
<!-- AddComponent&#45;&gt;HerosModule -->
<g id="edge5" class="edge">
<title>AddComponent&#45;&gt;HerosModule</title>
<path fill="none" stroke="black" d="M1569,-85.09C1569,-107.01 1569,-140.8 1569,-140.8 1569,-140.8 1134.63,-140.8 1134.63,-140.8"/>
<polygon fill="black" stroke="black" points="1134.63,-137.3 1124.63,-140.8 1134.63,-144.3 1134.63,-137.3"/>
</g>
<!-- ListComponent -->
<g id="node7" class="node">
<title>ListComponent</title>
<polygon fill="#ffffb3" stroke="black" points="1498.61,-84.8 1395.39,-84.8 1395.39,-48.8 1498.61,-48.8 1498.61,-84.8"/>
<text text-anchor="middle" x="1447" y="-62.6" font-family="Times,serif" font-size="14.00">ListComponent</text>
</g>
<!-- ListComponent&#45;&gt;HerosModule -->
<g id="edge6" class="edge">
<title>ListComponent&#45;&gt;HerosModule</title>
<path fill="none" stroke="black" d="M1447,-84.91C1447,-104.14 1447,-131.8 1447,-131.8 1447,-131.8 1134.73,-131.8 1134.73,-131.8"/>
<polygon fill="black" stroke="black" points="1134.73,-128.3 1124.73,-131.8 1134.73,-135.3 1134.73,-128.3"/>
</g>
<!-- ToUpperCaseDirective -->
<g id="node8" class="node">
<title>ToUpperCaseDirective</title>
<polygon fill="#ffffb3" stroke="black" points="1377.84,-84.8 1232.16,-84.8 1232.16,-48.8 1377.84,-48.8 1377.84,-84.8"/>
<text text-anchor="middle" x="1305" y="-62.6" font-family="Times,serif" font-size="14.00">ToUpperCaseDirective</text>
</g>
<!-- ToUpperCaseDirective&#45;&gt;HerosModule -->
<g id="edge7" class="edge">
<title>ToUpperCaseDirective&#45;&gt;HerosModule</title>
<path fill="none" stroke="black" d="M1305,-84.83C1305,-101.2 1305,-122.8 1305,-122.8 1305,-122.8 1134.76,-122.8 1134.76,-122.8"/>
<polygon fill="black" stroke="black" points="1134.76,-119.3 1124.76,-122.8 1134.76,-126.3 1134.76,-119.3"/>
</g>
<!-- ActionsComponent -->
<g id="node10" class="node">
<title>ActionsComponent</title>
<polygon fill="#8dd3c7" stroke="black" points="1208.38,-84.8 1205.38,-88.8 1184.38,-88.8 1181.38,-84.8 1083.62,-84.8 1083.62,-48.8 1208.38,-48.8 1208.38,-84.8"/>
<text text-anchor="middle" x="1146" y="-62.6" font-family="Times,serif" font-size="14.00">ActionsComponent</text>
</g>
<!-- ActionsComponent&#45;&gt;HerosModule -->
<g id="edge8" class="edge">
<title>ActionsComponent&#45;&gt;HerosModule</title>
<path fill="none" stroke="black" d="M1104.03,-84.91C1104.03,-84.91 1104.03,-103.79 1104.03,-103.79"/>
<polygon fill="black" stroke="black" points="1100.53,-103.79 1104.03,-113.79 1107.53,-103.79 1100.53,-103.79"/>
</g>
<!-- AlertComponent -->
<g id="node11" class="node">
<title>AlertComponent</title>
<polygon fill="#8dd3c7" stroke="black" points="1066.1,-84.8 1063.1,-88.8 1042.1,-88.8 1039.1,-84.8 955.9,-84.8 955.9,-48.8 1066.1,-48.8 1066.1,-84.8"/>
<text text-anchor="middle" x="1011" y="-62.6" font-family="Times,serif" font-size="14.00">AlertComponent</text>
</g>
<!-- AlertComponent&#45;&gt;HerosModule -->
<g id="edge9" class="edge">
<title>AlertComponent&#45;&gt;HerosModule</title>
<path fill="none" stroke="black" d="M1048.78,-84.91C1048.78,-84.91 1048.78,-103.79 1048.78,-103.79"/>
<polygon fill="black" stroke="black" points="1045.28,-103.79 1048.78,-113.79 1052.28,-103.79 1045.28,-103.79"/>
</g>
<!-- HeroFilterComponent -->
<g id="node12" class="node">
<title>HeroFilterComponent</title>
<polygon fill="#8dd3c7" stroke="black" points="937.65,-84.8 934.65,-88.8 913.65,-88.8 910.65,-84.8 798.35,-84.8 798.35,-48.8 937.65,-48.8 937.65,-84.8"/>
<text text-anchor="middle" x="868" y="-62.6" font-family="Times,serif" font-size="14.00">HeroFilterComponent</text>
</g>
<!-- HeroFilterComponent&#45;&gt;HerosModule -->
<g id="edge10" class="edge">
<title>HeroFilterComponent&#45;&gt;HerosModule</title>
<path fill="none" stroke="black" d="M868,-84.81C868,-100.85 868,-121.8 868,-121.8 868,-121.8 1021.39,-121.8 1021.39,-121.8"/>
<polygon fill="black" stroke="black" points="1021.39,-125.3 1031.39,-121.8 1021.39,-118.3 1021.39,-125.3"/>
</g>
<!-- HerosRoutingModule -->
<g id="node13" class="node">
<title>HerosRoutingModule</title>
<polygon fill="#8dd3c7" stroke="black" points="780.1,-84.8 777.1,-88.8 756.1,-88.8 753.1,-84.8 641.9,-84.8 641.9,-48.8 780.1,-48.8 780.1,-84.8"/>
<text text-anchor="middle" x="711" y="-62.6" font-family="Times,serif" font-size="14.00">HerosRoutingModule</text>
</g>
<!-- HerosRoutingModule&#45;&gt;HerosModule -->
<g id="edge11" class="edge">
<title>HerosRoutingModule&#45;&gt;HerosModule</title>
<path fill="none" stroke="black" d="M711,-85.07C711,-103.36 711,-128.8 711,-128.8 711,-128.8 1021.15,-128.8 1021.15,-128.8"/>
<polygon fill="black" stroke="black" points="1021.15,-132.3 1031.15,-128.8 1021.15,-125.3 1021.15,-132.3"/>
</g>
<!-- ImageComponent -->
<g id="node14" class="node">
<title>ImageComponent</title>
<polygon fill="#8dd3c7" stroke="black" points="624.31,-84.8 621.31,-88.8 600.31,-88.8 597.31,-84.8 507.69,-84.8 507.69,-48.8 624.31,-48.8 624.31,-84.8"/>
<text text-anchor="middle" x="566" y="-62.6" font-family="Times,serif" font-size="14.00">ImageComponent</text>
</g>
<!-- ImageComponent&#45;&gt;HerosModule -->
<g id="edge12" class="edge">
<title>ImageComponent&#45;&gt;HerosModule</title>
<path fill="none" stroke="black" d="M566,-84.93C566,-105.37 566,-135.8 566,-135.8 566,-135.8 1021.21,-135.8 1021.21,-135.8"/>
<polygon fill="black" stroke="black" points="1021.21,-139.3 1031.21,-135.8 1021.21,-132.3 1021.21,-139.3"/>
</g>
<!-- GenderPipe -->
<g id="node15" class="node">
<title>GenderPipe</title>
<polygon fill="#ffffb3" stroke="black" points="1886.09,-84.8 1803.91,-84.8 1803.91,-48.8 1886.09,-48.8 1886.09,-84.8"/>
<text text-anchor="middle" x="1845" y="-62.6" font-family="Times,serif" font-size="14.00">GenderPipe</text>
</g>
<!-- PipesModule -->
<g id="node17" class="node">
<title>PipesModule</title>
<polygon fill="#8dd3c7" stroke="black" points="1771.89,-149.8 1768.89,-153.8 1747.89,-153.8 1744.89,-149.8 1682.11,-149.8 1682.11,-113.8 1771.89,-113.8 1771.89,-149.8"/>
<text text-anchor="middle" x="1727" y="-127.6" font-family="Times,serif" font-size="14.00">PipesModule</text>
</g>
<!-- GenderPipe&#45;&gt;PipesModule -->
<g id="edge13" class="edge">
<title>GenderPipe&#45;&gt;PipesModule</title>
<path fill="none" stroke="black" d="M1858.76,-84.82C1858.76,-102.17 1858.76,-125.8 1858.76,-125.8 1858.76,-125.8 1781.98,-125.8 1781.98,-125.8"/>
<polygon fill="black" stroke="black" points="1781.98,-122.3 1771.98,-125.8 1781.98,-129.3 1781.98,-122.3"/>
</g>
<!-- ImgNotFoundPipe -->
<g id="node16" class="node">
<title>ImgNotFoundPipe</title>
<polygon fill="#ffffb3" stroke="black" points="1786.23,-84.8 1665.77,-84.8 1665.77,-48.8 1786.23,-48.8 1786.23,-84.8"/>
<text text-anchor="middle" x="1726" y="-62.6" font-family="Times,serif" font-size="14.00">ImgNotFoundPipe</text>
</g>
<!-- ImgNotFoundPipe&#45;&gt;PipesModule -->
<g id="edge14" class="edge">
<title>ImgNotFoundPipe&#45;&gt;PipesModule</title>
<path fill="none" stroke="black" d="M1727,-84.91C1727,-84.91 1727,-103.79 1727,-103.79"/>
<polygon fill="black" stroke="black" points="1723.5,-103.79 1727,-113.79 1730.5,-103.79 1723.5,-103.79"/>
</g>
<!-- GenderPipe  -->
<g id="node18" class="node">
<title>GenderPipe </title>
<polygon fill="#fb8072" stroke="black" points="1889.59,-214.8 1804.41,-214.8 1804.41,-178.8 1889.59,-178.8 1889.59,-214.8"/>
<text text-anchor="middle" x="1847" y="-192.6" font-family="Times,serif" font-size="14.00">GenderPipe </text>
</g>
<!-- PipesModule&#45;&gt;GenderPipe  -->
<g id="edge15" class="edge">
<title>PipesModule&#45;&gt;GenderPipe </title>
<path fill="none" stroke="black" stroke-dasharray="5,2" d="M1771.92,-137.8C1800.24,-137.8 1831.49,-137.8 1831.49,-137.8 1831.49,-137.8 1831.49,-168.78 1831.49,-168.78"/>
<polygon fill="black" stroke="black" points="1827.99,-168.78 1831.49,-178.78 1834.99,-168.78 1827.99,-168.78"/>
</g>
<!-- ImgNotFoundPipe  -->
<g id="node19" class="node">
<title>ImgNotFoundPipe </title>
<polygon fill="#fb8072" stroke="black" points="1785.73,-214.8 1662.27,-214.8 1662.27,-178.8 1785.73,-178.8 1785.73,-214.8"/>
<text text-anchor="middle" x="1724" y="-192.6" font-family="Times,serif" font-size="14.00">ImgNotFoundPipe </text>
</g>
<!-- PipesModule&#45;&gt;ImgNotFoundPipe  -->
<g id="edge16" class="edge">
<title>PipesModule&#45;&gt;ImgNotFoundPipe </title>
<path fill="none" stroke="black" stroke-dasharray="5,2" d="M1727,-149.91C1727,-149.91 1727,-168.79 1727,-168.79"/>
<polygon fill="black" stroke="black" points="1723.5,-168.79 1727,-178.79 1730.5,-168.79 1723.5,-168.79"/>
</g>
</g>
</svg>
